HIERARCHY
ROOT pelvis
{
  OFFSET 0 100 0
  CHANNELS 6 Xposition Yposition Zposition Zrotation Xrotation Yrotation
  JOINT pelvis_right_femur
  {
    OFFSET -10.78128 -3.44521 -0.5502486
    CHANNELS 3 Zrotation Xrotation Yrotation
    JOINT right_femur_tibia
    {
      OFFSET -0.8047443 -44.0398 -0.1307829
      CHANNELS 3 Zrotation Xrotation Yrotation
      JOINT right_tibia_foot
      {
        OFFSET 3.006224 -47.83518 -5
        CHANNELS 3 Zrotation Xrotation Yrotation
        End Site
        {
          OFFSET 0 -5 15
        }
      }
    }
  }
  JOINT pelvis_left_femur
  {
    OFFSET 10.78128 -3.44521 -0.5502486
    CHANNELS 3 Zrotation Xrotation Yrotation
    JOINT left_femur_tibia
    {
      OFFSET 0.8047443 -44.0398 -0.1307829
      CHANNELS 3 Zrotation Xrotation Yrotation
      JOINT left_tibia_foot
      {
        OFFSET -4.370144 -48.10324 -4.275266
        CHANNELS 3 Zrotation Xrotation Yrotation
        End Site
        {
          OFFSET 0 -5 15
        }
      }
    }
  }
  JOINT pelvis_spine1
  {
    OFFSET 0 6.468898 -3.129235
    CHANNELS 3 Zrotation Xrotation Yrotation
    JOINT spine1
    {
      OFFSET 0 23.15396 4.99043
      CHANNELS 3 Zrotation Xrotation Yrotation
      JOINT spine2
      {
        OFFSET 0 20.79997 -5.064912
        CHANNELS 3 Zrotation Xrotation Yrotation
        JOINT neck
        {
          OFFSET 0 14.38658 9.616178
          CHANNELS 3 Zrotation Xrotation Yrotation
          End Site
          {
            OFFSET 0 20 0
          }
        }
      }
      JOINT right_manubrium
      {
        OFFSET -5.722621 16.35077 3.967754
        CHANNELS 3 Zrotation Xrotation Yrotation
        JOINT right_clavicle
        {
          OFFSET -13.16364 1.694482 -4.693211
          CHANNELS 3 Zrotation Xrotation Yrotation
          JOINT right_humerus
          {
            OFFSET -28.5034 -0.3100689 -2.792744
            CHANNELS 3 Zrotation Xrotation Yrotation
            JOINT right_radius
            {
              OFFSET -25.15693 0.02248979 -1.271978
              CHANNELS 3 Zrotation Xrotation Yrotation
              End Site
              {
                OFFSET -15 0 0
              }
            }
          }
        }
      }
      JOINT left_manubrium
      {
        OFFSET 5.722621 16.35077 3.967754
        CHANNELS 3 Zrotation Xrotation Yrotation
        JOINT left_clavicle
        {
          OFFSET 13.16364 1.694482 -4.693211
          CHANNELS 3 Zrotation Xrotation Yrotation
          JOINT left_humerus
          {
            OFFSET 29.39168 -1.063119 -2.237045
            CHANNELS 3 Zrotation Xrotation Yrotation
            JOINT left_radius
            {
              OFFSET 24.59957 -0.9528479 0.9047498
              CHANNELS 3 Zrotation Xrotation Yrotation
              End Site
              {
                OFFSET 15 -0 -0
              }
            }
          }
        }
      }
    }
  }
}
MOTION
Frames: 21
Frame Time: 0.0416666666667
0 103.5113 0 0.7332274 -0.8206011 -0.2061669 5.161216 -17.59861 10.74689 -0 39.6254 -0 -5.366042 -16.56894 -1.572013 -7.74942 9.142537 -24.38127 -0 5.41822 -0 14.63265 -15.81496 31.82086 -3.810965 -3.779837 5.494493 2.395283 10.14623 -6.467162 2.241563 22.32788 6.169365 2.92287 -24.86512 10.31778 6.211074 -20.69675 11.8328 83.88457 34.76835 -15.74649 -0 0 17.41179 -5.0343 7.020247 3.074805 6.39205 -18.93136 -1.093167 -94.81921 22.55276 22.74152 0 0 -13.25499 15.31429 17.42685 -4.117068
0.4635572 104.1055 1.45057 0.6766614 -0.6196298 -0.4234921 5.37182 -18.21585 10.67292 -0 38.64674 -0 -5.087187 -16.41252 -1.503058 -7.711414 9.41818 -24.06364 -0 5.615858 -0 14.82905 -15.81572 31.65256 -3.696259 -3.896812 5.569243 2.388446 10.19537 -6.507015 2.291329 22.17511 6.124928 2.850874 -24.89328 10.39158 6.014656 -20.69232 11.76487 84.04825 34.45587 -15.92597 -0 0 17.43222 -5.12174 7.163106 2.952596 6.523545 -19.0718 -1.10068 -94.50023 21.91496 22.42188 0 0 -13.60089 15.99314 17.13787 -4.93507
0.8157498 104.5064 3.418253 0.4951902 -0.3913607 -0.5271973 5.279889 -21.25735 8.641808 -0 33.88745 -0 -5.992356 -13.34096 -1.558974 -7.217817 11.28187 -22.39361 -0 5.805733 -0 13.06433 -17.04901 29.01455 -3.381854 -3.59315 4.898611 2.424601 10.20071 -6.979302 1.9987 22.09909 6.377215 3.047864 -24.73847 9.96946 5.357249 -20.12323 11.60959 85.65682 33.67436 -17.83204 -0 0 15.59423 -6.825596 7.488238 3.773522 6.808821 -20.26291 -1.804807 -92.96614 22.14606 20.48765 0 0 -16.25534 14.99131 16.88916 -3.685112
1.11799 104.842 5.666751 0.2862827 0.2950136 -0.5690446 5.487302 -23.00136 8.026444 -0 30.89589 -0 -6.025945 -12.42609 -1.59762 -6.928984 11.89347 -21.61329 -0 5.977506 -0 11.69093 -17.79001 27.36862 -3.135981 -3.447582 4.682787 2.55473 9.99904 -7.311912 1.812378 21.84532 6.580426 3.131553 -24.97867 9.85366 5.24141 -19.86542 11.51637 86.14915 33.90329 -18.81401 -0 0 15.0755 -7.252322 7.787585 4.042261 6.840331 -20.61998 -1.924615 -92.54461 22.89703 20.16074 0 0 -17.77328 13.65124 16.6291 -1.943914
1.366943 105.0852 8.296101 0.07327827 0.8902571 -0.5492005 5.715571 -24.92383 7.245775 -0 27.57683 -0 -6.064261 -11.17145 -1.593671 -6.64778 12.72495 -20.59748 -0 6.627512 -0 10.49662 -18.34847 25.65277 -2.828316 -3.368719 4.479602 2.637302 9.904637 -7.621033 1.678689 21.57816 6.715475 3.173991 -25.12171 9.742293 4.939415 -19.57696 11.39422 86.84109 33.70886 -19.86678 -0 0 14.40923 -7.873576 8.128512 4.285642 6.960095 -21.1248 -2.125051 -91.84198 23.0169 19.45996 0 0 -19.36237 13.01286 16.22985 -1.074944
1.573991 105.2836 11.29657 -0.1825402 1.650369 -0.4760317 6.067852 -26.63795 6.751372 -0 24.48605 -0 -5.960741 -10.2477 -1.585317 -6.382044 13.30827 -19.70455 -0 7.604078 -0 9.234733 -18.74998 23.96664 -2.49217 -3.322 4.36428 2.74933 9.759448 -7.918277 1.558633 21.24793 6.847505 3.20069 -25.39193 9.686932 4.75137 -19.32754 11.28099 87.35238 33.75703 -20.80765 -0 0 13.96677 -8.223723 8.485288 4.418308 7.005852 -21.46358 -2.205234 -91.38309 23.29254 19.14718 0 0 -20.75374 12.23263 15.79845 0.01184579
1.741753 105.461 14.715 -0.4710535 2.421814 -0.3535571 6.481972 -28.25376 6.284912 -0 21.4565 -0 -5.881518 -9.205933 -1.555541 -6.118893 13.83875 -18.74555 -0 9.197663 -0 7.926606 -18.94128 22.18149 -2.104408 -3.301949 4.277814 2.85255 9.648428 -8.2004 1.454731 20.89752 6.955724 3.218506 -25.68356 9.634088 4.546275 -19.06923 11.1706 87.89849 33.7462 -21.75329 -0 0 13.50184 -8.562388 8.860065 4.522916 7.023781 -21.79615 -2.287427 -90.94324 23.43173 18.90138 0 0 -22.05463 11.59341 15.32272 0.9514809
1.873624 105.6654 18.59157 -0.8021852 3.208955 -0.1856178 6.961504 -29.66097 5.87444 -0 18.62289 -0 -5.866529 -8.049653 -1.514226 -5.847934 14.23601 -17.74714 -0 11.56447 -0 6.463052 -18.88342 20.25014 -1.663348 -3.286139 4.213465 2.954673 9.555777 -8.468827 1.353075 20.53519 7.052931 3.241045 -26.01789 9.570212 4.36987 -18.79515 11.07441 88.4574 33.76794 -22.70129 -0 0 13.0127 -8.859564 9.247301 4.616603 6.970107 -22.08557 -2.364278 -90.59932 23.59722 18.83584 0 0 -23.21472 10.89922 14.82588 1.996332
1.970862 105.9538 22.97641 -1.167643 3.911019 0.01876002 7.470214 -30.74335 5.44442 -0 16.09521 -0 -6.009189 -6.631273 -1.46134 -5.56498 14.48168 -16.65936 -0 15.00311 -0 4.821597 -18.4826 18.14507 -1.164795 -3.257168 4.152599 3.039514 9.518694 -8.711013 1.250868 20.19651 7.129887 3.275733 -26.34644 9.462199 4.20137 -18.48824 11.0044 89.08421 33.7407 -23.66155 -0 0 12.40939 -9.201277 9.640417 4.739676 6.828506 -22.36428 -2.482876 -90.32026 23.74963 18.8991 0 0 -24.19841 10.16598 14.32438 3.12068
2.033533 106.4028 27.91074 -1.547852 4.404885 0.2398862 7.966207 -31.28658 4.956314 -0 14.0715 -0 -6.389801 -4.894472 -1.402244 -5.266711 14.48721 -15.46622 -0 19.81802 -0 2.999096 -17.62761 15.90447 -0.616943 -3.18988 4.086718 3.091746 9.570411 -8.905452 1.146104 19.92812 7.175096 3.328329 -26.61277 9.276578 4.04255 -18.14089 10.98021 89.79094 33.6171 -24.60127 -0 0 11.63666 -9.646341 10.02764 4.926159 6.569839 -22.63695 -2.678799 -90.11326 23.89613 19.0811 0 0 -24.92417 9.360899 13.84639 4.352772
2.059611 107.1061 33.40799 -1.897474 4.500182 0.4383114 8.38839 -30.98265 4.369938 -0 12.78493 -0 -7.075193 -2.843105 -1.342898 -4.953343 14.106 -14.14916 -0 26.3083 -0 1.073434 -16.19628 13.66265 -0.04374108 -3.055329 4.019601 3.085839 9.764862 -9.016011 1.042767 19.79641 7.164915 3.397479 -26.71791 8.973469 3.883881 -17.76102 11.02943 90.56792 33.30355 -25.44024 -0 0 10.65637 -10.28224 10.39636 5.212061 6.172487 -22.91429 -2.998399 -89.96904 23.9851 19.33296 0 0 -25.28961 8.507398 13.42788 5.632551
2.04415 108.1695 39.419 -2.144087 3.975711 0.5505891 8.676496 -29.4302 3.692065 -0 12.44556 -0 -8.061059 -0.6534878 -1.29791 -4.622121 13.08214 -12.70908 -0 34.59405 -0 -0.7967276 -14.11263 11.6747 0.5071239 -2.821828 3.983631 2.991772 10.15871 -8.994332 0.9496879 19.8736 7.068745 3.471969 -26.53537 8.51847 3.718648 -17.39205 11.18586 91.33952 32.7107 -26.02709 -0 0 9.514872 -11.1937 10.74011 5.624993 5.626827 -23.1909 -3.475505 -89.88868 23.94639 19.60999 0 0 -25.18595 7.640149 13.10468 6.865552
1.978801 109.6868 45.79258 -2.203183 2.657584 0.4987229 8.796096 -26.2068 3.010982 -0 13.08789 -0 -9.205466 1.242794 -1.302526 -4.253578 11.02607 -11.17288 -0 44.35146 -0 -2.401619 -11.4271 10.28793 0.9644979 -2.46372 4.054649 2.783005 10.7854 -8.78993 0.8775749 20.20648 6.859232 3.529605 -25.94586 7.900586 3.547499 -17.13587 11.4801 91.93749 31.80379 -26.14087 -0 0 8.415988 -12.43622 11.07082 6.178324 4.949966 -23.4318 -4.104014 -89.90333 23.72069 19.91843 0 0 -24.54559 6.772876 12.88808 7.969967
1.854721 111.6852 52.25789 -2.023183 0.5713943 0.2196221 8.750685 -21.05858 2.500905 -0 14.36034 -0 -10.19039 2.149417 -1.416807 -3.791221 7.476369 -9.60569 -0 54.44738 -0 -3.574422 -8.406603 9.829073 1.247691 -1.977474 4.345813 2.454714 11.60148 -8.374097 0.8306788 20.76628 6.535033 3.542731 -24.91593 7.157967 3.388528 -17.15834 11.91663 92.0999 30.68666 -25.53793 -0 0 7.772083 -13.98454 11.42274 6.871375 4.202431 -23.55522 -4.797126 -90.10548 23.34045 20.38781 0 0 -23.40387 5.829036 12.73229 8.988945
1.672699 114.0408 58.48189 -1.638115 -1.918357 -0.3040897 8.546809 -14.22891 2.317748 -0 15.38273 -0 -10.61724 1.351075 -1.671978 -3.143367 2.184129 -8.096988 -0 62.71064 -0 -4.279688 -5.574011 10.42155 1.298344 -1.404642 4.945348 2.041203 12.44054 -7.771324 0.7993969 21.41505 6.143083 3.489494 -23.57381 6.391343 3.260065 -17.63586 12.43939 91.5535 29.60436 -24.05741 -0 0 8.102819 -15.71493 11.82809 7.706085 3.508649 -23.45662 -5.380144 -90.61432 22.95835 21.23681 0 0 -21.95177 4.654685 12.53046 10.1085
1.457333 116.4259 64.23255 -1.17242 -4.164645 -1.042113 8.154128 -6.73779 2.408601 -0 14.96769 -0 -10.28095 -1.324726 -1.953536 -2.242208 -4.401202 -6.712515 -0 66.34795 -0 -4.586476 -3.602757 11.8337 1.118921 -0.8455042 5.800016 1.609154 13.0449 -7.070758 0.7682078 21.94924 5.771102 3.367512 -22.18908 5.738089 3.116812 -18.62494 12.91037 90.20726 28.75879 -21.74741 -0 0 9.692905 -17.47895 12.25563 8.70756 3.058465 -23.1007 -5.674895 -91.42598 22.70195 22.52426 0 0 -20.50878 3.233537 12.19257 11.40191
1.257756 118.4047 69.54289 -0.7710579 -5.603389 -1.937683 7.552978 -0.05326876 2.448669 -0 12.46681 -0 -9.417543 -5.061814 -1.996353 -1.131713 -10.99865 -5.489787 -0 63.47499 -0 -4.548982 -2.951798 13.54713 0.7876216 -0.4288419 6.664294 1.213628 13.21477 -6.376626 0.7415815 22.2356 5.491375 3.205337 -21.02141 5.301262 2.820762 -19.95445 13.15399 88.33288 28.08808 -18.90255 -0 0 12.24003 -19.19847 12.56244 9.903849 3.0232 -22.58479 -5.639214 -92.31257 22.47395 23.94049 0 0 -19.29369 1.915431 11.79046 12.51702
1.123551 119.6639 74.66538 -0.5209748 -6.135502 -2.925007 6.81407 5.035262 2.135187 -0 8.652751 -0 -8.589114 -8.544775 -1.622838 0.0210263 -16.35727 -4.535656 -0 54.86001 -0 -4.219212 -3.427531 15.11673 0.419941 -0.2305032 7.264268 0.863702 12.94641 -5.721936 0.751954 22.31393 5.304349 3.055066 -20.18825 5.088409 2.286582 -21.31406 13.08118 86.41384 27.40419 -15.88738 -0 0 15.02681 -20.78601 12.56142 11.24622 3.385547 -22.00905 -5.37338 -93.07102 22.09195 25.1493 0 0 -18.09179 1.146727 11.57019 12.97476
1.078753 120.1535 79.84688 -0.4371731 -6.052718 -3.947262 6.066701 8.971769 1.541284 -0 5.192372 -0 -8.236268 -11.07092 -0.9164117 1.044086 -20.24606 -4.014367 -0 43.54856 -0 -3.771569 -4.304335 16.42872 0.1027804 -0.2212771 7.525795 0.5504807 12.38351 -5.068319 0.8254353 22.32078 5.159625 2.956241 -19.68566 5.032245 1.636484 -22.47727 12.76358 84.72592 26.7313 -12.90221 -0 0 17.52916 -22.03122 12.19079 12.57959 3.907117 -21.32383 -4.972701 -93.82518 21.61988 26.26481 0 0 -16.39312 0.9375283 11.69938 12.82263
1.117136 120.0115 85.20634 -0.4848255 -5.674089 -4.969636 5.409931 12.47678 0.9611292 -0 3.113577 -0 -8.391461 -12.75151 -0.08933101 1.861299 -23.13357 -3.959343 -0 32.47961 -0 -3.42438 -4.99679 17.53996 -0.1345209 -0.3121828 7.554781 0.2805769 11.6787 -4.399319 0.9546658 22.34569 5.023036 2.912405 -19.45361 5.062603 1.070582 -23.37322 12.3447 83.26422 26.24091 -10.03714 -0 0 19.61185 -22.77179 11.56574 13.74665 4.349081 -20.45587 -4.479473 -94.77654 21.27878 27.54653 0 0 -14.0191 0.9516395 12.11038 12.50882
1.211437 119.4213 90.77154 -0.6032942 -5.197536 -5.973478 4.871517 15.6996 0.5483798 -0 2.393682 -0 -8.836452 -13.8466 0.6974568 2.453782 -25.35327 -4.238176 -0 23.12437 -0 -3.260837 -5.375929 18.47662 -0.3037535 -0.4273736 7.467992 0.06119731 10.94702 -3.752497 1.113129 22.4083 4.897044 2.90817 -19.39998 5.139328 0.6720677 -23.9995 11.92648 82.00091 25.98457 -7.431033 -0 0 21.25835 -23.07245 10.84867 14.67945 4.637941 -19.47099 -3.947167 -95.87075 21.14022 28.9284 0 0 -11.29921 0.9757192 12.63538 12.28635
